/* XPM */
static char * round_xpm[] = {
"59 59 3 1",
" 	c #000000",
".	c #808080",
"+	c #FFFFFF",
"    .    .    .    .    .    .    .    .    .    .    .    ",
"    .    .    .    .    .    .    .    .    .    .    .    ",
"    .    .    .    .    .    .    .    .    .    .    .    ",
"    .    .    .    .    .    .    .    .    .    .    .    ",
"...........................................................",
"    .    .    .    .    .    .    .    .    .    .    .    ",
"    .    .    .    .    .    .    .    .    .    .    .    ",
"    .    .    .    .    .    .    .    .    .    .    .    ",
"    .    .    .    .    .    .    .    .    .    .    .    ",
"...........................+++++...........................",
"    .    .    .    . .+++++. . .+++++. .    .    .    .    ",
"    .    .    .    .++. .    .    . .++.    .    .    .    ",
"    .    .    .   .+.   .    .    .   .+    .    .    .    ",
"    .    .    . .++.    .    .    .    .++. .    .    .    ",
"................+.........................+................",
"    .    .    .+.  .    .    .    .    .  .+.    .    .    ",
"    .    .   .+.   .    .    .    .    .   .+.   .    .    ",
"    .    .   +.    .    .    .    .    .    .+   .    .    ",
"    .    .  .+.    .    .    .    .    .    .+.  .    .    ",
"............+.................................+............",
"    .    . +. .    .    .    .    .    .    . .+ .    .    ",
"    .    ..+  .    .    .    .    .    .    .  +..    .    ",
"    .    .+.  .    .    .    .    .    .    .  .+.    .    ",
"    .    .+   .    .    .    .    .    .    .   +.    .    ",
"..........+.....................................+..........",
"    .    .+   .    .    .    .    .    .    .   +.    .    ",
"    .    .+   .    .    .    .    .    .    .   +.    .    ",
"    .    +.   .    .    .    .    .    .    .   .+    .    ",
"    .    +    .    .    .    .    .    .    .    +    .    ",
".........+.......................................+.........",
"    .    +    .    .    .    .    .    .    .    +    .    ",
"    .    +.   .    .    .    .    .    .    .   .+    .    ",
"    .    .+   .    .    .    .    .    .    .   +.    .    ",
"    .    .+   .    .    .    .    .    .    .   +.    .    ",
"..........+.....................................+..........",
"    .    .+   .    .    .    .    .    .    .   +.    .    ",
"    .    .+.  .    .    .    .    .    .    .  .+.    .    ",
"    .    ..+  .    .    .    .    .    .    .  +..    .    ",
"    .    . +. .    .    .    .    .    .    . .+ .    .    ",
"............+.................................+............",
"    .    .  .+.    .    .    .    .    .    .+.  .    .    ",
"    .    .   +.    .    .    .    .    .    .+   .    .    ",
"    .    .   .+.   .    .    .    .    .   .+.   .    .    ",
"    .    .    .+.  .    .    .    .    .  .+.    .    .    ",
"................+.........................+................",
"    .    .    . .++.    .    .    .    .++. .    .    .    ",
"    .    .    .   .+.   .    .    .   .+.   .    .    .    ",
"    .    +    .    .++. .    .    . .++.    .    .    .    ",
"    .    +    .    . .+++++. . .+++++. .    .    .    .    ",
".......+++++...............+++++...........................",
"    .    +    .    .    .    .    .    .    .    .    .    ",
"    .    +    .    .    .    .    .    .    .    .    .    ",
"    .    .    .    .    .    .    .    .    .    .    .    ",
"    .    .    .    .    .    .    .    .    .    .    .    ",
"...........................................................",
"    .    .    .    .    .    .    .    .    .    .    .    ",
"    .    .    .    .    .    .    .    .    .    .    .    ",
"    .    .    .    .    .    .    .    .    .    .    .    ",
"    .    .    .    .    .    .    .    .    .    .    .    "};
