/* XPM */
static const char * delete_xpm[] = {
"16 16 5 1",
" 	c None",
".	c #000000",
"+	c #808080",
"@	c #FFFFFF",
"#	c #F5F5F5",
"     .....      ",
"     .+++.      ",
"  ...........   ",
"  .@###+++++.   ",
"  ...........   ",
"   .+.+.+.+.    ",
"   .@.#.+.+.    ",
"  ..@.#.#.+..   ",
" . .@.#.+.+. .  ",
"   .@.#.#.+.    ",
"   .@.#.+.+.    ",
"   .@.#.#.+.    ",
"   .@.#.+.+.    ",
"   .@.#.#.+.    ",
"   .@++++++.    ",
"   .........    "};
