/* XPM */
static const char * angle_xpm[] = {
"83 83 3 1",
" 	c None",
".	c #0000FF",
"+	c #000000",
"                                         .                                         ",
"                                         .                                         ",
"                                   ++++++.++++++                                   ",
"                               ++++      .      ++++                               ",
"                            +++          .          +++                            ",
"                         +++             .             +++                         ",
"                       ++                .                ++                       ",
"                      +                  .                  +                      ",
"                    ++    ...   ...  ... .                  +++                    ",
"                   +     .   . .   . . . .                     +                   ",
"                 ++      .   . .   . ... .                      ++                 ",
"                +        .   . .   .     .                        +                ",
"               +          .... .   .     .                         +               ",
"              +              . .   .     .                          +              ",
"             +           .   . .   .     .                           +             ",
"            +             ...   ...      .                            +            ",
"           +                             .                             +           ",
"          +                              .                              +          ",
"          +                              .                              +          ",
"         +                               .                               +         ",
"        +                                .                                +        ",
"        +                                .                                +        ",
"       +                                 .                                 +       ",
"      +                                  .                                  +      ",
"      +                                  .                                  +      ",
"     +                                   .                                   +     ",
"     +                                   .                                   +     ",
"     +                                   .                                   +     ",
"    +                                    .                                    +    ",
"    +                                 +++++++                                 +    ",
"    +                               ++   .   ++                               +    ",
"   +                              ++     .     ++                   ...  ...   +   ",
"   +                             +       .       +                 .   . . .   +   ",
"   +                            +        .        +                .   . ...   +   ",
"   +                           +         .         +               .   .       +   ",
"  +                            +         .         +               .   .        +  ",
"  +                           +          .          +              .   .        +  ",
"  +                           +          .          +              .   .        +  ",
"  +                          +           .                          ...         +  ",
"  +                          +           .                                      +  ",
"  +                          +           .                                      +  ",
".............................+.....................................................",
"  +                          +           .                                      +  ",
"  +                          +           .                                      +  ",
"  +      .    ...   ...  ... +           .                                      +  ",
"  +     ..   .   . .   . . .  +          .                                      +  ",
"  +    . .   .   . .   . ...  +          .                                      +  ",
"  +      .    ...  .   .       +         .      +++++                           +  ",
"   +     .   .   . .   .       +         .         ++                          +   ",
"   +     .   .   . .   .        +        .        + +                          +   ",
"   +     .   .   . .   .         +       .       +  +                          +   ",
"   +     .    ...   ...           ++     .     ++   +                          +   ",
"    +                               ++   .   ++                               +    ",
"    +                                 +++++++                                 +    ",
"    +                                    .                                    +    ",
"     +                                   .                                   +     ",
"     +                                   .                                   +     ",
"     +                                   .                                   +     ",
"      +                                  .                                  +      ",
"      +                                  .                                  +      ",
"       +                                 .                                 +       ",
"        +                                .                                +        ",
"        +                                .                                +        ",
"         +                               .                               +         ",
"          +                              .                              +          ",
"          +                              .                              +          ",
"           +                             .  ...  .....  ...  ...       +           ",
"            +                            . .   .    .  .   . . .      +            ",
"             +                           .     .    .  .   . ...     +             ",
"              +                          .     .   .   .   .        +              ",
"               +                         .    .    .   .   .       +               ",
"                +                        .   .    .    .   .      +                ",
"                 ++                      .  .     .    .   .    ++                 ",
"                   +                     . .....  .     ...    +                   ",
"                    ++                   .                   ++                    ",
"                      +                  .                  +                      ",
"                       ++                .                ++                       ",
"                         +++             .             +++                         ",
"                            +++          .          +++                            ",
"                               ++++      .      ++++                               ",
"                                   ++++++.++++++                                   ",
"                                         .                                         ",
"                                         .                                         "};
