/* XPM */
static char *_6600[] = {
/* columns rows colors chars-per-pixel */
"28 13 16 1 ",
"  c black",
". c #800000",
"X c #008000",
"o c #808000",
"O c navy",
"+ c #800080",
"@ c #008080",
"# c None",
"$ c #808080",
"% c red",
"& c green",
"* c yellow",
"= c blue",
"- c magenta",
"; c cyan",
": c white",
/* pixels */
"--------  ----              ",
"------- -- - - o ######## # ",
"-----------  - o ########   ",
"-   ------   - o ######## o ",
" *:*      ---- o ######## o ",
" :*:*:*:* ---- o ######## o ",
" *:*:*:*: ---- oo        oo ",
" :*:*          oooooooooooo ",
" *:* ooooooo - oo         o ",
" :* ooooooo -- oo      ## o ",
" * ooooooo --- oo      ## o ",
"  ooooooo ---- oo      ## o ",
"-        ------             "
};
