/* XPM */
static char * bitmap_xpm[] = {
"20 20 3 1",
" 	c #FFFFFF",
".	c #808080",
"+	c #000000",
"  .  .++.++.++.  .  ",
"  .  .++.++.++.  .  ",
"....................",
"  .++.++.++.++.++.  ",
"  .++.++.++.++.++.  ",
"....................",
"++.++.++.  .++.++.++",
"++.++.++.  .++.++.++",
"....................",
"++.++.  .  .  .++.++",
"++.++.  .  .  .++.++",
"....................",
"++.++.++.  .++.++.++",
"++.++.++.  .++.++.++",
"....................",
"  .++.++.++.++.++.  ",
"  .++.++.++.++.++.  ",
"....................",
"  .  .++.++.++.  .  ",
"  .  .++.++.++.  .  "};
