/* XPM */
static char * blue_checked_xpm[] = {
"10 23 2 1",
" 	c #2828FF",
".	c #FFFFFF",
"          ",
"          ",
"          ",
"          ",
"          ",
"  .       ",
"  ..      ",
"  ...     ",
"  ....    ",
"  .....   ",
"  ......  ",
"  ....... ",
"  ......  ",
"  .....   ",
"  ....    ",
"  ...     ",
"  ..      ",
"  .       ",
"          ",
"          ",
"          ",
"          ",
"          "};
