/* XPM */
static char * check_xpm[] = {
"8 10 2 1",
" 	c None",
".	c #000000",
"       .",
"       .",
"      ..",
"      . ",
"     .. ",
"..   .  ",
" .. ..  ",
"  . .   ",
"  ...   ",
"   .    "};
