/* XPM */
static char * cross_xpm[] = {
"7 7 3 1",
" 	c None",
".	c #FF0000",
"+	c #800000",
" .   . ",
".+. .+.",
" .+.+. ",
"  .+.  ",
" .+.+. ",
".+. .+.",
" .   . "};
