/* XPM */
static const char *MYSPINDOWN[] = {
/* columns rows colors const chars-per-pixel */
"9 6 16 1 ",
"  c black",
". c #800000",
"X c #008000",
"o c None",
"O c navy",
"+ c #800080",
"@ c #008080",
"# c None",
"$ c #808080",
"% c red",
"& c green",
"* c yellow",
"= c blue",
"- c magenta",
"; c cyan",
": c white",
/* pixels */
"ooooooooo",
"o       o",
"oo     oo",
"ooo   ooo",
"oooo oooo",
"ooooooooo"
};
