/* XPM */
static char * paste_xpm[] = {
"20 20 8 1",
" 	c None",
".	c #000000",
"+	c #FFFF00",
"@	c #808000",
"#	c #808080",
"$	c #C0C0C0",
"%	c #000080",
"&	c #FFFFFF",
"                    ",
"                    ",
"                    ",
"       ....         ",
"   .....++.....     ",
"  .@#@.+..+.#@#.    ",
"  .##.$$$$$$.#@.    ",
"  .@#........##.    ",
"  .#@#@#@#@#@#@.    ",
"  .@#@#@%%%%%%%.    ",
"  .#@#@#%&&&&&%%    ",
"  .@#@#@%&&&&&%&%   ",
"  .#@#@#%&%%%&%%%%  ",
"  .@#@#@%&&&&&&&&%  ",
"  .#@#@#%&%%%%%%&%  ",
"   .....%&&&&&&&&%  ",
"        %%%%%%%%%%  ",
"                    ",
"                    ",
"                    "};
