/* XPM */
static char * tool_autoroute_xpm[] = {
"16 16 4 1",
" 	c None",
".	c #60A0C0",
"+	c #10709F",
"@	c #115B80",
"    ....+@      ",
"    ....+@      ",
"   ..+@..+@     ",
"   ..+@..+@     ",
"   ..+@..+@     ",
"  ...+@...+@    ",
"  ..+@  ..+@    ",
"  ..+@  ..+@    ",
" ...+@  ...+@   ",
" ..........+@   ",
" ..........+@   ",
"...++++++...+@  ",
"..+@@@@@@@..+@  ",
"..+@      ..+@  ",
"++@       +++@  ",
" @@        @@@  "};
