/* XPM */
static char * tool_pad_smd_xpm[] = {
"16 16 2 1",
" 	c None",
".	c #000000",
"                ",
"                ",
"    ........    ",
"    ........    ",
"    ........    ",
"    ........    ",
"    ........    ",
"    ........    ",
"    ........    ",
"    ........    ",
"    ........    ",
"    ........    ",
"    ........    ",
"    ........    ",
"                ",
"                "};
