/* XPM */
static char * undo_xpm[] = {
"20 20 3 1",
" 	c None",
".	c #000080",
"+	c #808080",
"                    ",
"                    ",
"                    ",
"                    ",
"                    ",
"                    ",
"                    ",
"          ....+     ",
"    .   ..    .+    ",
"    .. .       .    ",
"    ...        .    ",
"    ....       .    ",
"    .....     .+    ",
"             +.     ",
"                    ",
"                    ",
"                    ",
"                    ",
"                    ",
"                    "};
