/* XPM */
static char * zoom_xpm[] = {
"20 20 5 1",
" 	c None",
".	c #808080",
"+	c #000000",
"@	c #FFFF00",
"#	c #FFFFFF",
"                    ",
"                    ",
"      .+++++.       ",
"    .++. @ .++.     ",
"   .+.@ @ @ @.+.    ",
"   +.@ @ @ @ @.+    ",
"  .+@ @ @ @ @ @+.   ",
"  +. @ @ @ @ @ .+   ",
"  + @ @ @ @ @ @ +   ",
"  +@ @ @ @ @ @ @+   ",
"  + @ @ @ @ @ @ +   ",
"  +. @ @ @ @ @ .+   ",
"  .+@ @ @ @ @ @+.   ",
"   +.@ @ @ @ @.+.   ",
"   .+.@ @ @ @.++++. ",
"    .++. @ .++.+#++.",
"      .+++++..+++#++",
"              ++++#+",
"              .++++#",
"               .++++"};
