/* XPM */
static char * capture_enabled_xpm[] = {
"28 28 5 1",
" 	c None",
".	c #FF0000",
"+	c #FFFFFF",
"@	c #000000",
"#	c #808080",
"            .+.             ",
"            .+.             ",
"            .+.             ",
"            .+.             ",
"            .+.             ",
"            .+.             ",
"          @@.+.@@           ",
"        @@@@.+.@@@@         ",
"       @@@@@.+.@@@@@        ",
"       @@@@@.+.@@@@@        ",
"      @@@@@#.+.#@@@@@       ",
"      @@@@#+.+.+#@@@@       ",
".............+............. ",
"+++++++++++++++++++++++++++ ",
".............+............. ",
"      @@@@#+.+.+#@@@@       ",
"      @@@@@#.+.#@@@@@       ",
"       @@@@@.+.@@@@@        ",
"       @@@@@.+.@@@@@        ",
"        @@@@.+.@@@@         ",
"          @@.+.@@           ",
"            .+.             ",
"            .+.             ",
"            .+.             ",
"            .+.             ",
"            .+.             ",
"            .+.             ",
"                            "};
