/* XPM */
static const char * cutout_rect_xpm[] = {
"14 9 2 1",
" 	c None",
".	c #000000",
"..............",
".  .  .  .  ..",
". .  .  .  . .",
"..  .  .  .  .",
".  .  .  .  ..",
". .  .  .  . .",
"..  .  .  .  .",
".  .  .  .  ..",
".............."};
