/* XPM */
static const char * ground_disabled_xpm[] = {
"26 26 3 1",
" 	c #808080",
".	c #FFFFFF",
"+	c #000000",
"                          ",
"                          ",
"                          ",
"..........                ",
"...........               ",
"+++++++++...              ",
"++++++++++...             ",
"+++++++++++...            ",
".......+++++...           ",
"........+++++...          ",
"      ...+++++...         ",
"       ...+++++.....      ",
"        ...+++++.....     ",
"         ...+++++++...    ",
"          ...+++++++...   ",
"           ..++++++++..   ",
"           ..+++..+++..   ",
"           ..+++..+++..   ",
"           ..++++++++..   ",
"           ...++++++...   ",
"            ...++++...    ",
"             ........     ",
"              ......      ",
"                          ",
"                          ",
"                          "};
