/* XPM */
static const char * rubberband_small_xpm[] = {
"28 28 2 1",
" 	c None",
".	c #373737",
"                            ",
"                            ",
"                            ",
"                            ",
"                            ",
"                            ",
"                  ....      ",
"                .......     ",
"               ....  ...    ",
"              ...    ...    ",
"           .....    ...     ",
"        .......    ...      ",
"      .......     ...       ",
"     ....        ...        ",
"     ..          ..         ",
"     ..         ..          ",
"     ..         ..          ",
"     ....     ....          ",
"      ...........           ",
"        .......             ",
"                            ",
"                            ",
"                            ",
"                            ",
"                            ",
"                            ",
"                            ",
"                            "};
