/* XPM */
static const char * rubberband_disabled_xpm[] = {
"28 28 3 1",
" 	c None",
".	c #FF0000",
"+	c #373737",
"                            ",
"                            ",
"  ..                    ..  ",
"  ...                  ...  ",
"   ...             +++...+  ",
"    ...          ++++...++++",
"     ...        ++++...+++++",
"      ...      ++++...   +++",
"       ...   +++++...    +++",
"        ...++++++...   +++++",
"      +++...++++...   +++++ ",
"    ++++++...+ ...   +++++  ",
"  +++++++++......   ++++    ",
" +++++++    ....   ++++     ",
" ++++       ....  ++++      ",
"++++       ...... +++       ",
"+++       ...  ...+++       ",
"+++      ...    ...+        ",
"+++     ...     +...        ",
" ++++  ...     +++...       ",
" +++++...    ++++++...      ",
"  +++...++++++++++  ...     ",
"   +...+++++++++     ...    ",
"   ...+++++++         ...   ",
"  ...                  ...  ",
"  ..                    ..  ",
"                            ",
"                            "};
