/* XPM */
static const char * rubberband_large_xpm[] = {
"28 28 2 1",
" 	c None",
".	c #373737",
"                            ",
"                            ",
"                            ",
"                            ",
"                   .......  ",
"                 ...........",
"                ...... .....",
"               .....     ...",
"             ......      ...",
"           .......     .....",
"      ..........      ..... ",
"    ..........       .....  ",
"  ..........        ....    ",
" .......           ....     ",
" ....             ....      ",
"....              ...       ",
"...              ....       ",
"...              ...        ",
"...             ....        ",
" ....          ....         ",
" ......      ......         ",
"  ................          ",
"   .............            ",
"      .......               ",
"                            ",
"                            ",
"                            ",
"                            "};
