/* XPM */
static char * grid_xpm[] = {
"21 21 2 1",
" 	c #000000",
".	c #C0C0C0",
"                     ",
"    .     .     .    ",
"    .     .     .    ",
"    .     .     .    ",
" ..................  ",
"    .     .     .    ",
"    .     .     .    ",
"    .     .     .    ",
"    .     .     .    ",
"    .     .     .    ",
" ................... ",
"    .     .     .    ",
"    .     .     .    ",
"    .     .     .    ",
"    .     .     .    ",
"    .     .     .    ",
" ................... ",
"    .     .     .    ",
"    .     .     .    ",
"    .     .     .    ",
"                     "};
