/* XPM */
static char * align_vcenter_xpm[] = {
"20 20 4 1",
" 	c None",
".	c #000000",
"+	c #FFFFFF",
"@	c #808080",
"                    ",
"                    ",
"             .      ",
"             .      ",
"   ......   .+.     ",
"   .++++.   .+.     ",
"   .++++.  .+++.    ",
"   .++++.  .+++.    ",
"   .++++. .+++++.   ",
"  @@@@@@@@@@@@@@@@  ",
"   .++++. .+++++.   ",
"   .++++.  .+++.    ",
"   .++++.  .+++.    ",
"   ......   .+.     ",
"            .+.     ",
"             .      ",
"             .      ",
"                    ",
"                    ",
"                    "};
