/* XPM */
static char * align_left_xpm[] = {
"20 20 4 1",
" 	c None",
".	c #808080",
"+	c #000000",
"@	c #FFFFFF",
"                    ",
"                    ",
"   .                ",
"   .++++++++++      ",
"   .+@@@@@@@@+      ",
"   .+@@@@@@@@+      ",
"   .+@@@@@@@@+      ",
"   .+@@@@@@@@+      ",
"   .++++++++++      ",
"   .                ",
"   .      +++       ",
"   .    ++@@@++     ",
"   .  ++@@@@@@@++   ",
"   .++@@@@@@@@@@@++ ",
"   .  ++@@@@@@@++   ",
"   .    ++@@@++     ",
"   .      +++       ",
"   .                ",
"                    ",
"                    "};
