/* XPM */
static const char * align_xpm[] = {
"20 20 4 1",
" 	c None",
".	c #000000",
"+	c #0000FF",
"@	c #FFFFFF",
"                    ",
"                    ",
"                    ",
"      .........     ",
"  +   .@@@@@@@.  +  ",
" +++  .@@@@@@@.  +  ",
"+++++ .@@@@@@@.  +  ",
"  +   .@@@@@@@.  +  ",
"  +   .........  +  ",
"  +              +  ",
"  +            +++++",
"  +      ...    +++ ",
"  +    ..@@@..   +  ",
"     ..@@@@@@@..    ",
"   ..@@@@@@@@@@@..  ",
"     ..@@@@@@@..    ",
"       ..@@@..      ",
"         ...        ",
"                    ",
"                    "};
