/* XPM */
static char * components_xpm[] = {
"20 20 4 1",
" 	c None",
".	c #000000",
"+	c #FFFFFF",
"@	c #808080",
"....................",
"....................",
".....++++...+++.....",
".....+++++.++++.....",
".....++.++.++++.....",
".....++++....++.....",
".....++++....++.....",
".....++.++...++.....",
".....++.++...++.....",
"....................",
"....................",
"                    ",
"        @.@         ",
"        ...         ",
"        @.@         ",
"                    ",
"        @.@         ",
"        ...         ",
"        @.@         ",
"                    "};
