/* XPM */
static const char * delete_xpm[] = {
"20 20 5 1",
" 	c None",
".	c #000000",
"+	c #808080",
"@	c #FFFFFF",
"#	c #C0C0C0",
"                    ",
"                    ",
"       .....        ",
"       .+++.        ",
"    ...........     ",
"    .@###+++++.     ",
"    ...........     ",
"     .+.+.+.+.      ",
"     .@.#.+.+.      ",
"    ..@.#.#.+..     ",
"   . .@.#.+.+. .    ",
"     .@.#.#.+.      ",
"     .@.#.+.+.      ",
"     .@.#.#.+.      ",
"     .@.#.+.+.      ",
"     .@.#.#.+.      ",
"     .@++++++.      ",
"     .........      ",
"                    ",
"                    "};
