/* XPM */
static const char * drc_xpm[] = {
"20 20 7 1",
" 	c #000000",
".	c #E0C080",
"+	c #808080",
"@	c #C0DCC0",
"#	c #FF0000",
"$	c #800000",
"%	c #00FF00",
"                    ",
"                    ",
"  ....  ....   ...  ",
"  ..... ..... ....  ",
"  .. .. .. .. ..    ",
"  .. .. ....  ..    ",
"  .. .. ....  ..    ",
"  ..... .. .. ....  ",
"  ....  .. ..  ...  ",
"                    ",
"                    ",
"+@@@@@@@@@@@@@@@@@@+",
"+@@@@@@@@@@@@#$@@$#+",
"+@@  @@@@  @@$#  #$+",
"+@ %% @@ %% @@ ## @+",
"+@ %% @@ %% @@ ## @+",
"+@@  @@@@  @@$#  #$+",
"+@@@@@@@@@@@@#$@@$#+",
"+@@@@@@@@@@@@@@@@@@+",
"++++++++++++++++++++"};
