/* XPM */
static char * group_off_xpm[] = {
"20 20 5 1",
" 	c None",
".	c #FFFF00",
"+	c #000000",
"@	c #C0C0C0",
"#	c #808080",
"                    ",
"                    ",
"    .  +++++        ",
"    . +@@@@@+       ",
" .  .+@@+++@@+      ",
"  . .+@+   +@+      ",
"   ..+@+   +@+      ",
" .... + .. +@+      ",
"   ....    +@+      ",
"  . +++++++++++     ",
" . +@@@@@@@@@@@+    ",
"   +####+++####+    ",
"   +@@@@+++@@@@+    ",
"   +###@+++@###+    ",
"   +@@@@@+@@@@@+    ",
"    +##@@+@@##+     ",
"     ++@@@@@++      ",
"       +++++        ",
"                    ",
"                    "};
