/* XPM */
static const char * info_xpm[] = {
"20 20 4 1",
" 	c None",
".	c #808080",
"+	c #0000FF",
"@	c #FFFFFF",
"                    ",
"       .+++++.      ",
"     ..++++++++.    ",
"   .+++++@@@+++++.  ",
"   ++++++@@@++++++  ",
"  .++++++@@@++++++. ",
"  +++++++++++++++++ ",
" .+++++++++++++++++.",
" +++++++@@@@++++++++",
" ++++++++@@@++++++++",
" ++++++++@@@++++++++",
" ++++++++@@@++++++++",
" ++++++++@@@++++++++",
" .+++++++@@@+++++++.",
"  +++++++@@@+++++++ ",
"  .++++++@@@++++++. ",
"   +++++@@@@@+++++  ",
"   .+++++++++++++.  ",
"     .+++++++++.    ",
"       .+++++.      "};
