/* XPM */
static const char * macro_xpm[] = {
"20 20 5 1",
" 	c None",
".	c #808080",
"+	c #000000",
"@	c #FFFFFF",
"#	c #FF0000",
"    .++++   ++++.   ",
"  @@.++++   ++++.@@ ",
"  @@.+++++++++++.@@ ",
"    .+++++++++++.   ",
"    .+++++++++++.   ",
"  @@.+++++++++++.@@ ",
"  @@.+++++++++++.@@ ",
"    .++##+++##++.   ",
"    .++###+###++.   ",
"  @@.++#######++.@@ ",
"  @@.++##+#+##++.@@ ",
"    .++##+++##++.   ",
"    .++##+++##++.   ",
"  @@.++##+++##++.@@ ",
"  @@.+++++++++++.@@ ",
"    .+++++++++++.   ",
"    .+++++++++++.   ",
"  @@.+++++++++++.@@ ",
"  @@.+++++++++++.@@ ",
"    .+++++++++++.   "};
