/* XPM */
static char * mirror_h_xpm[] = {
"20 20 4 1",
" 	c None",
".	c #0000FF",
"+	c #000000",
"@	c #FFFFFF",
"                    ",
"          .         ",
"    +++   .   +++   ",
"   +++++  .  +++++  ",
"   ++@++  .  ++@++  ",
"   +++++  .  +++++  ",
"  +++++   .   +++++ ",
"  ++      .      ++ ",
"  ++   .  .  .   ++ ",
"  ++  ..  .  ..  ++ ",
"  ++ ........... ++ ",
"  ++  ..  .  ..  ++ ",
"  ++   .  .  .   ++ ",
"  +++     .     +++ ",
" +++++    .    +++++",
" ++@++    .    ++@++",
" +++++    .    +++++",
"  +++     .     +++ ",
"          .         ",
"                    "};
