/* XPM */
static const char * mirror_v_xpm[] = {
"20 20 4 1",
" 	c None",
".	c #000000",
"+	c #FFFFFF",
"@	c #0000FF",
"                    ",
"   ...              ",
"  ............      ",
"  ..+............   ",
"  .....      .....  ",
"   ...   @   ..+..  ",
"        @@@  .....  ",
"       @@@@@  ...   ",
"         @          ",
"         @          ",
" @@@@@@@@@@@@@@@@@@ ",
"         @          ",
"         @          ",
"       @@@@@  ...   ",
"        @@@  .....  ",
"   ...   @   ..+..  ",
"  .....      .....  ",
"  ..+............   ",
"  ............      ",
"   ...              "};
