/* XPM */
static const char * print_xpm[] = {
"20 20 6 1",
" 	c None",
".	c #000000",
"+	c #FFFFFF",
"@	c #C0C0C0",
"#	c #808080",
"$	c #FFFF00",
"                    ",
"                    ",
"                    ",
"       .........    ",
"      .++++++++.    ",
"      .+.....+.     ",
"     .++++++++.     ",
"     .+.....+....   ",
"    .++++++++.@.@.  ",
"   ..........@.@..  ",
"  .@@@@@@@@@@.@.@.  ",
"  .............@@.  ",
"  .@@@@@@###@@.@.   ",
"  .@@@@@@$$$@@...   ",
"  .............@.   ",
"   .@@@@@@@@@.@.    ",
"    ...........     ",
"                    ",
"                    ",
"                    "};
