/* XPM */
static char * properties_xpm[] = {
"20 20 5 1",
" 	c #000000",
".	c #A6CAF0",
"+	c #A0A0A4",
"@	c #C0DCC0",
"#	c #006000",
"                    ",
"        ...         ",
"       .....        ",
"      ..   ..       ",
"      ..   ..       ",
"         ...        ",
"        ..          ",
"        ..          ",
"                    ",
"        ..          ",
"                    ",
"+@@@@@@@@@@@@@@@@@@+",
"+@@@@@@@@@@@@@@@@@@+",
"+@@###@@@@@#######@+",
"+@#####@@@@#######@+",
"+@##@##@@@@#######@+",
"+@#####@@@@#######@+",
"+@@###@@@@@#######@+",
"+@@@@@@@@@@@@@@@@@@+",
"++++++++++++++++++++"};
