/* XPM */
static const char *remove_con_xpm[] = {
/* columns rows colors const chars-per-pixel */
"20 20 4 1 ",
"  c black",
"# c None",
"= c blue",
": c white",
/* pixels */
"####################",
"###   ##############",
"##     #############",
"##  :  #############",
"##   = #############",
"###   ==############",
"########==##########",
"##########==########",
"###   ######==   ###",
"##     ###### =   ##",
"##  :==========:  ##",
"##     ###### =   ##",
"###   ########   ###",
"###############  ###",
"###############  ###",
"###   #########  ###",
"##     ########  ###",
"##  :            ###",
"##               ###",
"###   ##############"
};
