/* XPM */
static char * transparent_xpm[] = {
"20 20 4 1",
" 	c None",
".	c #008000",
"+	c #0000FF",
"@	c #00FFFF",
"    ...             ",
"    ...             ",
"    ...             ",
"    ...             ",
"    ...             ",
"++++@@@+++++++      ",
"++++@@@++++++++     ",
"++++@@@++++++++     ",
"    ...     +++     ",
"    ...     +++     ",
"    ...     +++     ",
"    ...     +++     ",
"    ...     +++     ",
"    ........@@@.....",
"    ........@@@.....",
"     .......@@@.....",
"            +++     ",
"            +++     ",
"            +++     ",
"            +++     "};
