/* XPM */
static char * zoom_selection_xpm[] = {
"20 20 5 1",
" 	c None",
".	c #000000",
"+	c #FFFF00",
"@	c #FF00FF",
"#	c #FFFFFF",
"       .....        ",
"     .........      ",
"   ....+ + +....    ",
"  ... + + + + ...   ",
"  .. + + + + + ..   ",
" .. + + + + + + ..  ",
" ..+ + + + + + +..  ",
"..+ +@@@+ +@@@+ +.. ",
".. +@@@@@+@@@@@+ .. ",
"..+ @@#@@ @@#@@ +.. ",
".. +@@@@@+@@@@@+ .. ",
"..+ +@@@+ +@@@+ +.. ",
".. + + + + + + + .. ",
" .. + + + + + + ..  ",
" ..+ + + + + + +..  ",
"  ..+ + + + + +.... ",
"  .... + + + ....#..",
"    ..............#.",
"      .......  ....#",
"                ...."};
