/* XPM */
static const char * zoom_objects_xpm[] = {
"20 20 4 1",
" 	c None",
".	c #000000",
"+	c #FFFF00",
"@	c #FFFFFF",
"       .....        ",
"     .........      ",
"   ....+ + +....    ",
"  ... + + + + ...   ",
"  .. + + + + + ..   ",
" .. + + + + + + ..  ",
" ..+ + + + + + +..  ",
"..+ +...+ +...+ +.. ",
".. +.....+.....+ .. ",
"..+ ..@.. ..@.. +.. ",
".. +.....+.....+ .. ",
"... +...+ +...+ +.. ",
"...+ + + + + + + .. ",
"... + + + + + + ..  ",
" ..+ + + + + + +..  ",
"  ..+ + + + + +.... ",
"  .... + + + ....@..",
"    ..............@.",
"      .......  ....@",
"                ...."};
