/* XPM */
static const char * zoom_board_xpm[] = {
"20 20 4 1",
" 	c None",
".	c #000000",
"+	c #FFFF00",
"@	c #FFFFFF",
"       .....        ",
"     .........      ",
"   ....     ....    ",
"  ...         ...   ",
"  ..           ..   ",
" ..             ..  ",
" .. ........... ..  ",
"..  . + + + + .  .. ",
"..  .+ + + + +.  .. ",
"..  . + + + + .  .. ",
"..  .+ + + + +.  .. ",
"..  . + + + + .  .. ",
"..  .+ + + + +.  .. ",
" .. ........... ..  ",
" ..             ..  ",
"  ..           .... ",
"  ....       ....@..",
"    ..............@.",
"      .......  ....@",
"                ...."};
