/* XPM */
static const char * ch_track_xpm[] = {
"32 15 3 1",
" 	c None",
".	c #000000",
"+	c #FFFFFF",
"         .                      ",
"       .....                    ",
"        ...                     ",
"         .                      ",
"                                ",
" .................              ",
"...................      .......",
"..+.............+..       ..... ",
"...................        ...  ",
" .................          .   ",
"                                ",
"         .                      ",
"        ...                     ",
"       .....                    ",
"         .                      "};
