/* XPM */
static const char * pad_square_v_xpm[] = {
"16 16 4 1",
" 	c None",
".	c #000000",
"+	c #808080",
"@	c #FFFFFF",
"    ........    ",
"    ........    ",
"    ........    ",
"    ........    ",
"    ........    ",
"    ........    ",
"    ..+@@+..    ",
"    ..@@@@..    ",
"    ..@@@@..    ",
"    ..+@@+..    ",
"    ........    ",
"    ........    ",
"    ........    ",
"    ........    ",
"    ........    ",
"    ........    "};
