/* XPM */
static const char * pad_circle_v_xpm[] = {
"16 16 4 1",
" 	c None",
".	c #808080",
"+	c #000000",
"@	c #FFFFFF",
"     .++++.     ",
"    .++++++.    ",
"    ++++++++    ",
"    ++++++++    ",
"    ++++++++    ",
"    ++++++++    ",
"    ++.@@.++    ",
"    ++@@@@++    ",
"    ++@@@@++    ",
"    ++.@@.++    ",
"    ++++++++    ",
"    ++++++++    ",
"    ++++++++    ",
"    ++++++++    ",
"    .++++++.    ",
"     .++++.     "};
