/* XPM */
static const char * padm_circle_h_xpm[] = {
"16 16 5 1",
" 	c None",
".	c #808080",
"+	c #000000",
"@	c #800000",
"#	c #FF0000",
"                ",
"                ",
"                ",
"                ",
" .++++++++++++. ",
".++++++++++++++.",
"++++++@##@++++++",
"++++++####++++++",
"++++++####++++++",
"++++++@##@++++++",
".++++++++++++++.",
" .++++++++++++. ",
"                ",
"                ",
"                ",
"                "};
