/* XPM */
static char * photoview_xpm[] = {
"16 16 16 1",
" 	c None",
".	c #606080",
"+	c #606040",
"@	c #202040",
"#	c #A0A0A4",
"$	c #FFFFFF",
"%	c #404040",
"&	c #808080",
"*	c #C0DCC0",
"=	c #F5F5F5",
"-	c #E0E080",
";	c #E0A0C0",
">	c #F4F4F4",
",	c #E0A000",
"'	c #804000",
")	c #A06000",
"                ",
"      ..++@     ",
"     .#$$$$%    ",
" ......%%%%.%%% ",
"%$&.......&....+",
"%*$&&..%%%%&.&&+",
"%*$&.%&&&.#%&&#+",
"%*$&%&&&&&.&.&#+",
"%*$..##&%%.&.&#+",
"%*$..=&.-;.&.##+",
"%*$..>&%,,'..##+",
"%##&.&#+').&&#&+",
" @@@@@......%%% ",
"       ....     ",
"                ",
"                "};
