/* XPM */
static const char * plus_xpm[] = {
"10 10 2 1",
" 	c None",
".	c #008A00",
"          ",
"    ..    ",
"    ..    ",
"    ..    ",
" ........ ",
" ........ ",
"    ..    ",
"    ..    ",
"    ..    ",
"          "};
