/* XPM */
static const char * swap_smd_xpm[] = {
"24 8 2 1",
" 	c None",
".	c #000000",
"   ............         ",
"  .............     ..  ",
"  ..               .... ",
"  ..              ......",
"......              ..  ",
" ....               ..  ",
"  ..     .............  ",
"         ............   "};
