/* XPM */
static const char * zoom_xpm[] = {
"16 16 5 1",
" 	c None",
".	c #000000",
"+	c #EBE9ED",
"@	c #FFFFFF",
"#	c #808080",
"     ....       ",
"   ..+@@+..     ",
"  .+@@@@@@+.    ",
"  .@@@@@@@@.    ",
" .+@+@@@@@@+.   ",
" .@#+++@@++@.   ",
" .@##++++##@.   ",
" .+###+@+#++.   ",
"  .++####+@.    ",
"  .+++#++++.    ",
"   ..+@@+..@.   ",
"     .... ..@.  ",
"          ...@. ",
"           .... ",
"            ..  ",
"                "};
