/* XPM */
static char *AUTOMASSE_EIN[] = {
/* columns rows colors chars-per-pixel */
"28 28 16 1 ",
"  c black",
". c #800000",
"X c #008000",
"o c #808000",
"O c navy",
"+ c #800080",
"@ c #008080",
"# c #808080",
"$ c None",
"% c red",
"& c green",
"* c yellow",
"= c blue",
"- c magenta",
"; c cyan",
": c white",
/* pixels */
"&&&&&&&&&&&&&&&&&&&&&&&&&&&&",
"&OOOOOOOOOOOOOOOOOOOOOOOOOO&",
"&OOOOOOOOOOOOOOOOOOOOOOOOOO&",
"&OOOOOOOOOOOOOOOOOOOOOOOOOO&",
"&::::::::::OOOOOOOOOOOOOOOO&",
"&:::::::::::OOOOOOOOOOOOOOO&",
"&         :::OOOOOOOOOOOOOO&",
"&          :::OOOOOOOOOOOOO&",
"&           :::OOOOOOOOOOOO&",
"&:::::::     :::OOOOOOOOOOO&",
"&::::::::     :::OOOOOOOOOO&",
"&OOOOOO:::     :::OOOOOOOOO&",
"&OOOOOOO:::     :::::OOOOOO&",
"&OOOOOOOO:::     :::::OOOOO&",
"&OOOOOOOOO:::       :::OOOO&",
"&OOOOOOOOOO:::       :::OOO&",
"&OOOOOOOOOOO::        ::OOO&",
"&OOOOOOOOOOO::   ::   ::OOO&",
"&OOOOOOOOOOO::   ::   ::OOO&",
"&OOOOOOOOOOO::        ::OOO&",
"&OOOOOOOOOOO:::      :::OOO&",
"&OOOOOOOOOOOO:::    :::OOOO&",
"&OOOOOOOOOOOOO::::::::OOOOO&",
"&OOOOOOOOOOOOOO::::::OOOOOO&",
"&OOOOOOOOOOOOOOOOOOOOOOOOOO&",
"&OOOOOOOOOOOOOOOOOOOOOOOOOO&",
"&OOOOOOOOOOOOOOOOOOOOOOOOOO&",
"&&&&&&&&&&&&&&&&&&&&&&&&&&&&"
};
