/* XPM */
static char * selector_xpm[] = {
"20 20 3 1",
" 	c None",
".	c #FFFFFF",
"+	c #E080C0",
"                    ",
"       .....        ",
"     ..+++++..      ",
"    .+++++++++.     ",
"   .+++++++++++.    ",
"  .+++++++++++++.   ",
"  .+++++++++++++.   ",
" .++++++...++++++.  ",
" .+++++.....+++++.  ",
" .+++++.....+++++.  ",
" .+++++.....+++++.  ",
" .++++++...++++++.  ",
"  .+++++++++++++.   ",
"  .+++++++++++++.   ",
"   .+++++++++++.    ",
"    .+++++++++.     ",
"     ..+++++..      ",
"       .....        ",
"                    ",
"                    "};
