/* XPM */
static char * to_grid_xpm[] = {
"20 20 5 1",
" 	c None",
".	c #0000FF",
"+	c #808080",
"@	c #000000",
"#	c #FFFFFF",
".        +        . ",
" .  .    +    .  .  ",
"  . .    +    . .   ",
"   ..    +    ..    ",
" ....    +    ....  ",
"       +@@@+        ",
"      @@@@@@@       ",
"     +@@+#+@@+      ",
"     @@+###+@@      ",
"+++++@@#####@@++++++",
"     @@+###+@@      ",
"     +@@+#+@@+      ",
"      @@@@@@@       ",
"       +@@@+        ",
" ....    +    ....  ",
"   ..    +    ..    ",
"  . .    +    . .   ",
" .  .    +    .  .  ",
".        +        . ",
"         +          "};
