/* XPM */
static char * zoom_prev_xpm[] = {
"20 20 4 1",
" 	c None",
".	c #000000",
"+	c #808080",
"@	c #FFFFFF",
"       .....        ",
"     .........      ",
"   ....     ....    ",
"  ...         ...   ",
"  ..           ..   ",
" ..             ..  ",
" ..             ..  ",
"..               .. ",
"..  +.+ +.+ +.+  .. ",
"..  ... ... ...  .. ",
"..  +.+ +.+ +.+  .. ",
"..               .. ",
"..               .. ",
" ..             ..  ",
" ..             ..  ",
"  ..           .... ",
"  ....       ....@..",
"    ..............@.",
"      .......  ....@",
"                ...."};
